PathFileType	4	(X/Y/Z)	pose_F01_0-86.trc
DataRate	CameraRate	NumFrames	NumMarkers	Units	OrigDataRate	OrigDataStartFrame	OrigNumFrames
30	30	7	21	m	30	53	86
Frame#	Time	CHip			RHip			RKnee			RAnkle			RBigToe			RSmallToe			RHeel			LHip			LKnee			LAnkle			LBigToe			LSmallToe			LHeel			Neck			Nose			RShoulder			RElbow			RWrist			LShoulder			LElbow			LWrist			
		X1	Y1	Z1	X2	Y2	Z2	X3	Y3	Z3	X4	Y4	Z4	X5	Y5	Z5	X6	Y6	Z6	X7	Y7	Z7	X8	Y8	Z8	X9	Y9	Z9	X10	Y10	Z10	X11	Y11	Z11	X12	Y12	Z12	X13	Y13	Z13	X14	Y14	Z14	X15	Y15	Z15	X16	Y16	Z16	X17	Y17	Z17	X18	Y18	Z18	X19	Y19	Z19	X20	Y20	Z20	X21	Y21	Z21	
53	1.7666666666666666	-0.26341395157710246	1.834234091338445	-0.442646044667576	-0.2750370524891151	1.8316211003049547	-0.37932052797117266	-0.2809947175838826	1.6962441091295122	-0.3590725814341571	-0.28021441119322227	1.5672409876090236	-0.34421804214374085	-0.25411446159235807	1.535888446494754	-0.3652705290133561	-0.2608883402129417	1.5369185144315975	-0.3288785781589876	-0.2850816945006328	1.5591160504005819	-0.34747617681174436	-0.2567654468662249	1.8362945145319702	-0.5076216979771401	-0.272524580751791	1.7026466974680794	-0.46573719878174813	-0.2722610599583532	1.577114528307914	-0.452656965883516	-0.24419096180410424	1.5458979586424086	-0.49339441772401155	-0.24788145202188078	1.5564345818620224	-0.5133291122025628	-0.27329953556107445	1.5646687391928102	-0.43610569916450403	-0.2684881373339461	1.987194321190122	-0.45519622086805156	-0.2419963548009936	2.0452307008635104	-0.5056989032081516	-0.28097369798780064	1.981959303387451	-0.36508331806538324	-0.276252293087456	1.903286050185808	-0.32122447865267634	-0.27089850523574577	1.8318020427462547	-0.28713315570458087	-0.2544429617062311	1.9960739346762393	-0.548446806446967	-0.22715821340076395	1.9502600829356955	-0.601213865327119	-0.24729160462564048	1.9998240647485162	-0.5273123619864043
54	1.8	-0.2618773949304511	1.8363805734708174	-0.4449337239099596	-0.2743890437655903	1.8333922735675963	-0.3763981044521913	-0.281366645905718	1.6970345132383324	-0.35857427931337016	-0.28025023976242475	1.567508400883477	-0.34427019438830364	-0.25783365205951114	1.5354521168619981	-0.360998545918247	-0.26278562002098155	1.5372505755644617	-0.3268159963104415	-0.28522309610188235	1.5599670618893862	-0.3475658532773878	-0.2560975233153972	1.8379681377723394	-0.5047119790119264	-0.2727209382925338	1.7016048173902032	-0.4653990776457042	-0.27334420490718714	1.5772193578985212	-0.4558629268032587	-0.24453436518849175	1.5475956408737914	-0.4930626652953507	-0.24786983072761376	1.5563477328463264	-0.5132824743058554	-0.2745653635749388	1.5655329060253482	-0.43932936154207436	-0.2686444542274281	1.9859379786855682	-0.4551510379753563	-0.24213302238886691	2.0441669787004635	-0.5057377290483103	-0.2809509158673661	1.9805632817067627	-0.3644853511908847	-0.2792165964951768	1.9020520305831863	-0.32219406954425056	-0.2708345949418612	1.8277455767775999	-0.2863113292785126	-0.2548430904862178	1.9940983104483618	-0.5489063517066195	-0.2274508811335205	1.947710486490518	-0.6010876269104724	-0.2413866918104836	2.0008306417952024	-0.5257801544073618
55	1.8333333333333333	-0.26376698337209714	1.8389712259146203	-0.4434027724393026	-0.27546042103690704	1.8361079959931845	-0.3801688930938137	-0.28101969863382653	1.696738983922366	-0.35892101833954265	-0.2801638644784066	1.5671429013055542	-0.34429942455944934	-0.25784701065953225	1.5351983587880915	-0.36107329167459223	-0.26271135444584437	1.5365336850399143	-0.3268543559125946	-0.284989744315329	1.5589748361346745	-0.3475701370808422	-0.25717147604908697	1.842041991478821	-0.5085450314360125	-0.2726713047649937	1.7044147720218863	-0.46582316190882983	-0.2742713367490898	1.5775020796332546	-0.4506288268983947	-0.2444438976374543	1.5469426182001438	-0.49325777770504936	-0.24781539590694623	1.5557102736440542	-0.5135011980149033	-0.27362761896118304	1.5661385882728467	-0.43610836242796663	-0.2687006633716131	1.9859318157096308	-0.4551424547907107	-0.24408374681154124	2.0440359223741837	-0.5035106199749103	-0.2809309300078798	1.9807345927640998	-0.36456113915806787	-0.2790945639922566	1.9005704035027053	-0.32171013770801754	-0.270534252643997	1.8288058954294504	-0.28673130199515584	-0.25694137578907267	1.9931995344532858	-0.5467667051872799	-0.22175744187263582	1.950635620222278	-0.6109150328226336	-0.23716515205550034	1.9990703104829384	-0.5377669710027637
56	1.8666666666666667	-0.262300299952198	1.835548831803032	-0.4482596565988754	-0.27594355249409824	1.8326964529585406	-0.3829297480596852	-0.2806249038176	1.696188484265658	-0.3593908991403403	-0.2805463753902912	1.5638805185539013	-0.3433946218016805	-0.2548638956806237	1.5358968528587553	-0.35985431272446217	-0.26087913593155604	1.537108546441795	-0.32880565517323196	-0.2851080983562066	1.5591872685003105	-0.34747205061702674	-0.2565110818518036	1.8373844503139203	-0.5080062569003957	-0.2721380096313245	1.7026308466466895	-0.4662195059129316	-0.2730938440103265	1.5755921737835228	-0.45608925859772564	-0.24415646523486606	1.5478939005974504	-0.49398169210940807	-0.2477789141203415	1.5554582265123091	-0.5136160721717382	-0.27410247568038115	1.5654057868450098	-0.4401144356348855	-0.27014204213096144	1.987825859337985	-0.4526439810804333	-0.24295177331286616	2.044302582937827	-0.49975897233156347	-0.2838329816057312	1.9806185769895521	-0.36564485621874926	-0.2771971713790461	1.901565120279852	-0.32373996179112324	-0.26864874966255714	1.8273351636719437	-0.2885076667019186	-0.2563110155326004	1.9970086079518787	-0.5462464725401144	-0.22102576588315614	1.9551982959144405	-0.6109515766973981	-0.24290726535314447	2.000345223923407	-0.5392153509383939
57	1.9	-0.2613299850437945	1.8354208577629858	-0.4450015176785866	-0.27489097845760546	1.8327276355338056	-0.37967885831236503	-0.27838144075991184	1.698373134640662	-0.3621962191786329	-0.28161514202299864	1.5663202443810802	-0.34693071433907635	-0.2541964928851035	1.536433683224779	-0.36527951914754075	-0.26114238094298775	1.538518911349005	-0.3286343527742603	-0.2852608360744455	1.5601943923957653	-0.3473111298961602	-0.2554963055803745	1.8399467896626642	-0.5050811549509463	-0.26993937921613137	1.7035992664752926	-0.4686863087608726	-0.2739277561893769	1.5782395923018768	-0.45113846145791603	-0.2442234705985347	1.543370658297449	-0.49280539236615956	-0.24727329784981522	1.5534306208448168	-0.5136381881886837	-0.2727088543160548	1.5666569207971395	-0.43712678182764114	-0.2702056004921469	1.9878112478255554	-0.45258846615838094	-0.24304454447390567	2.0446380519150367	-0.5004311549921512	-0.2838734882029837	1.9806951733829852	-0.3656120666691956	-0.2771327520737052	1.899934105831882	-0.3235117073199643	-0.2693611136892299	1.826843267942436	-0.2918488265935445	-0.25621491738516855	1.9967881782875239	-0.5457521448847348	-1.484284243883117	1.868823348493452	0.7263575466280434	-0.2514562928793539	2.00168540078777	-0.541078873206571
58	1.9333333333333333	-0.2622761070868295	1.838131335381861	-0.44862975826690066	-0.2748689540127748	1.8352987999702095	-0.38017386675298287	-0.2785506111097736	1.6971328323494677	-0.36181666496339837	-0.28199290334781657	1.5657753948523958	-0.34645304072891775	-0.2541615660211715	1.5363148546743006	-0.3652612089313181	-0.2614092901495325	1.5376574218221026	-0.3281140147080058	-0.2866058124943203	1.5585694540030917	-0.35026601162545673	-0.25617100861057274	1.8424449418148985	-0.5087980710183647	-0.27126479080717913	1.7026935183827332	-0.4715597895542733	-0.2731681789702294	1.5758161806861417	-0.45612557155064154	-0.2444763058913426	1.5468356867607445	-0.4932989001458657	-0.24780255274506968	1.5555400248278721	-0.5135177276894229	-0.27446819024909036	1.564547118799442	-0.43963094719102147	-0.271216295276667	1.98794954854291	-0.45563284682209065	-0.2419584901782801	2.046166079601045	-0.5056506388168698	-0.2839578143643399	1.9796969356462761	-0.3655470740540918	-0.2770824085436715	1.8998780817889043	-0.3234510008860958	-0.26755326231351645	1.8267209346037252	-0.29394686330908326	-0.25725202921902424	1.9982521033338914	-0.5492839353152109	-0.22020749320886507	1.956385274318911	-0.6081401793836363	-0.24325344454002568	2.0086241698215885	-0.5249479921135333
59	1.9666666666666666	-0.26263301929485117	1.8359873736831762	-0.44823499701221053	-0.27620802688659035	1.8331081977696013	-0.3829396241327581	-0.28081086763648766	1.6949608810110086	-0.3589867762407446	-0.2814869933279785	1.565949497110112	-0.34695281188181554	-0.25604196679065055	1.5361023827287346	-0.3631848164633986	-0.26125964989695766	1.5390439611391218	-0.32864777339545054	-0.28498464840423604	1.558788025707684	-0.3475744903074241	-0.25680636656222317	1.8403277027016276	-0.5084225580272211	-0.2705915309431599	1.7000251161450692	-0.46754738874328183	-0.2752352752725924	1.5771272162265848	-0.4538503298254896	-0.24320725525106504	1.54600517865369	-0.4900050629377345	-0.24662219766997612	1.5549861257991273	-0.5102995249668438	-0.27463766345929097	1.5658592099443198	-0.4393623838232355	-0.2713792419724959	1.986975997513165	-0.45566073260657175	-0.24289668524694646	2.0450148563921977	-0.5083106700650322	-0.2828168208139815	1.980577538881823	-0.3625059112786752	-0.2769868876915186	1.8984144904358504	-0.32310209295331255	-0.2672886291680549	1.8262673564303553	-0.294003547160163	-0.25940787132079285	1.9984623303186115	-0.5477540932147903	-0.22254149774925563	1.9618782204885417	-0.6072755928183905	-0.24122813648594205	2.0098186818022135	-0.5188971148426855
